<svg width="0" height="0" class="hidden">
  <symbol fill="none" xmlns="http://www.w3.org/2000/svg" viewBox="0 0 15 15" id="settinng">
    <path clip-rule="evenodd" d="M5.944.5l-.086.437-.329 1.598a5.52 5.52 0 00-1.434.823L2.487 2.82l-.432-.133-.224.385L.724 4.923.5 5.31l.328.287 1.244 1.058c-.045.277-.103.55-.103.841 0 .291.058.565.103.842L.828 9.395.5 9.682l.224.386 1.107 1.85.224.387.432-.135 1.608-.537c.431.338.908.622 1.434.823l.329 1.598.086.437h3.111l.087-.437.328-1.598a5.524 5.524 0 001.434-.823l1.608.537.432.135.225-.386 1.106-1.851.225-.386-.329-.287-1.244-1.058c.046-.277.103-.55.103-.842 0-.29-.057-.564-.103-.841l1.244-1.058.329-.287-.225-.386-1.106-1.85-.225-.386-.432.134-1.608.537a5.52 5.52 0 00-1.434-.823L9.142.937 9.055.5H5.944z" stroke="#000" stroke-linecap="square" stroke-linejoin="round"></path>
    <path clip-rule="evenodd" d="M9.5 7.495a2 2 0 01-4 0 2 2 0 014 0z" stroke="#000" stroke-linecap="square" stroke-linejoin="round"></path>
  </symbol>
  <symbol fill="none" xmlns="http://www.w3.org/2000/svg" viewBox="0 0 15 16" id="info">
    <path d="M7 1.504v.5h1v-.5H7zm1-.01v-.5H7v.5h1zm0 12.01v-9.5H7v9.5h1zm0-12v-.01H7v.01h1zm-4 3.5h3.5v-1H4v1zm-2 9h11v-1H2v1z" fill="#000"></path>
  </symbol>
  <symbol fill="none" xmlns="http://www.w3.org/2000/svg" viewBox="0 0 15 15" id="area-chart-alt">
    <path d="M.5 14.5H0v.5h.5v-.5zm1.5-3v.5h1v-.5H2zm13-9V2h-1v.5h1zM0 0v14.5h1V0H0zm.5 15H15v-1H.5v1zM3 11.5c0-1.454.244-2.88.707-3.922C4.177 6.52 4.798 6 5.5 6V5c-1.298 0-2.178.98-2.707 2.172C2.256 8.38 2 9.954 2 11.5h1zM5.5 6c.32 0 .642.158 1.005.492.366.338.713.798 1.095 1.308.368.49.77 1.03 1.217 1.442.45.416 1.004.758 1.683.758V9c-.32 0-.642-.158-1.005-.492C9.13 8.17 8.782 7.71 8.4 7.2c-.368-.49-.77-1.03-1.217-1.442C6.733 5.342 6.179 5 5.5 5v1zm5 4c1.223 0 2.363-.763 3.173-2.045C14.485 6.668 15 4.819 15 2.5h-1c0 2.18-.485 3.832-1.173 4.92C12.137 8.514 11.277 9 10.5 9v1z" fill="#000"></path>
  </symbol>
  <symbol fill="none" xmlns="http://www.w3.org/2000/svg" viewBox="0 0 15 15" id="appointments">
    <path d="M3.5 0v5m8-5v5M3 7.5h3m6 0H9m-6 3h3m3 0h3m-10.5-8h12a1 1 0 011 1v10a1 1 0 01-1 1h-12a1 1 0 01-1-1v-10a1 1 0 011-1z" stroke="#000"></path>
  </symbol>
  <symbol fill="none" xmlns="http://www.w3.org/2000/svg" viewBox="0 0 22 18" id="videocam-outline">
    <g clip-path="url(#clip0)">
      <path d="M16.742 12.064l3.998 3.377a.66.66 0 00.736-.07.885.885 0 00.258-.335 1.07 1.07 0 00.094-.443V3.412a1.07 1.07 0 00-.094-.443.885.885 0 00-.258-.335.66.66 0 00-.736-.07L16.742 5.94a.9.9 0 00-.241.331 1.08 1.08 0 00-.087.428v4.606c0 .148.03.295.087.427a.9.9 0 00.241.331z" stroke="#000" stroke-linecap="round" stroke-linejoin="round"></path>
      <path d="M11.58 16.425H2.686c-.667-.002-1.305-.32-1.776-.886-.47-.565-.736-1.331-.738-2.13V4.59c.002-.799.267-1.565.738-2.13s1.11-.884 1.776-.886h8.917c.66.003 1.292.318 1.76.878.466.56.729 1.319.73 2.11v8.846c-.001.799-.267 1.565-.738 2.13-.47.565-1.109.884-1.775.886z" stroke="#000" stroke-miterlimit="10"></path>
      <path d="M8.8 12.495v.5h.5v-.5h-.5zm-4.889 0h-.5v.5h.5v-.5zm6.845.005v.5h.5v-.5h-.5zM7.322 6.999c0 .562-.443.999-.966.999v1c1.096 0 1.966-.905 1.966-1.999h-1zm-.966.999c-.524 0-.967-.437-.967-.999h-1c0 1.094.87 1.999 1.967 1.999v-1zm-.967-.999c0-.562.443-.999.967-.999V5c-1.097 0-1.967.905-1.967 1.999h1zM6.356 6c.523 0 .966.437.966.999h1C8.322 5.905 7.452 5 6.356 5v1zM8.8 11.995H3.911v1H8.8v-1zm-4.389.5v-.997h-1v.997h1zm.967-1.998h1.955v-1H5.378v1zm2.922 1v.998h1v-.997h-1zm-.967-1c.524 0 .967.437.967 1h1c0-1.094-.87-2-1.967-2v1zm-2.922 1c0-.563.443-1 .967-1v-1c-1.097 0-1.967.906-1.967 2h1zm5.845.253v.75h1v-.75h-1zm.5.25H9.533v1h1.223v-1zm-1.223-1c.389 0 .723.325.723.75h1c0-.956-.761-1.75-1.723-1.75v1zM9.29 9a.49.49 0 01-.478-.5h-1c0 .818.651 1.5 1.478 1.5V9zm.478-.5a.49.49 0 01-.478.5v1c.827 0 1.478-.682 1.478-1.5h-1zM9.289 8a.49.49 0 01.478.5h1c0-.818-.651-1.5-1.478-1.5v1zm0-1c-.827 0-1.478.682-1.478 1.5h1c0-.287.225-.5.478-.5V7z" fill="#000"></path>
    </g>
    <defs>
      <clipPath id="clip0">
        <path fill="#fff" d="M0 0h22v18H0z"></path>
      </clipPath>
    </defs>
  </symbol>
  <symbol fill="none" xmlns="http://www.w3.org/2000/svg" viewBox="0 0 15 15" id="download">
    <path d="M7.5 10.5l-3.25-3m3.25 3l3-3m-3 3V1m6 6v6.5h-12V7" stroke="#000"></path>
  </symbol>
  <symbol fill="none" xmlns="http://www.w3.org/2000/svg" viewBox="0 0 15 15" id="exclamation-circle">
    <path d="M8 10.5V10H7v.5h1zm-1 .01v.5h1v-.5H7zM7 4v4h1V4H7zm0 6.5v.01h1v-.01H7zm.5 3.5A6.5 6.5 0 011 7.5H0A7.5 7.5 0 007.5 15v-1zM14 7.5A6.5 6.5 0 017.5 14v1A7.5 7.5 0 0015 7.5h-1zM7.5 1A6.5 6.5 0 0114 7.5h1A7.5 7.5 0 007.5 0v1zm0-1A7.5 7.5 0 000 7.5h1A6.5 6.5 0 017.5 1V0z" fill="#000"></path>
  </symbol>
</svg>